<?xml version="1.0" encoding="UTF-8" standalone="no"?>
<!-- Created with Inkscape (http://www.inkscape.org/) -->

<svg
   xmlns:dc="http://purl.org/dc/elements/1.1/"
   xmlns:cc="http://creativecommons.org/ns#"
   xmlns:rdf="http://www.w3.org/1999/02/22-rdf-syntax-ns#"
   xmlns:svg="http://www.w3.org/2000/svg"
   xmlns="http://www.w3.org/2000/svg"
   xmlns:sodipodi="http://sodipodi.sourceforge.net/DTD/sodipodi-0.dtd"
   xmlns:inkscape="http://www.inkscape.org/namespaces/inkscape"
   version="1.1"
   id="svg2"
   xml:space="preserve"
   width="188.97333"
   height="188.97333"
   viewBox="0 0 188.97333 188.97333"
   sodipodi:docname="Moonshot Icon-Round (2018) CMYK for Print.svg"
   inkscape:version="0.92.2 2405546, 2018-03-11"><metadata
     id="metadata8"><rdf:RDF><cc:Work
         rdf:about=""><dc:format>image/svg+xml</dc:format><dc:type
           rdf:resource="http://purl.org/dc/dcmitype/StillImage" /><dc:title></dc:title></cc:Work></rdf:RDF></metadata><defs
     id="defs6" /><sodipodi:namedview
     pagecolor="#ffffff"
     bordercolor="#666666"
     borderopacity="1"
     objecttolerance="10"
     gridtolerance="10"
     guidetolerance="10"
     inkscape:pageopacity="0"
     inkscape:pageshadow="2"
     inkscape:window-width="1920"
     inkscape:window-height="1150"
     id="namedview4"
     showgrid="false"
     inkscape:zoom="3.5322911"
     inkscape:cx="66.160918"
     inkscape:cy="111.14578"
     inkscape:window-x="0"
     inkscape:window-y="0"
     inkscape:window-maximized="1"
     inkscape:current-layer="g10" /><g
     id="g10"
     inkscape:groupmode="layer"
     inkscape:label="ink_ext_XXXXXX"
     transform="matrix(1.3333333,0,0,-1.3333333,0,188.97333)"><g
       id="g12"
       transform="scale(0.1)"><path
         d="M 1417.32,708.66 C 1417.32,317.281 1100.04,-0.0117188 708.664,-0.0117188 317.281,-0.0117188 0,317.281 0,708.66 c 0,391.38 317.281,708.66 708.664,708.66 391.376,0 708.656,-317.28 708.656,-708.66"
         style="fill:#122a3d;fill-opacity:1;fill-rule:nonzero;stroke:none"
         id="path14"
         inkscape:connector-curvature="0" /><path
         d="m 1092.57,643.07 v 292.305 h 32.57 l 142.39,-205.871 v 205.871 h 41.76 V 643.07 h -33.41 L 1134.74,847.266 V 643.07 Z M 975.688,865.637 c -19.637,20.047 -47.196,32.148 -76.426,32.148 -29.227,0 -55.957,-12.101 -75.574,-32.148 -19.629,-19.207 -31.739,-46.352 -31.739,-76.414 0,-30.071 12.11,-57.207 31.739,-76.418 19.617,-20.047 46.347,-32.157 75.574,-32.157 29.23,0 56.789,12.11 76.426,32.157 19.199,19.211 31.312,45.933 31.312,76.418 0,30.48 -12.113,57.207 -31.312,76.414 z m -182.911,30.484 c 27.149,27.559 65.149,44.68 106.485,44.68 41.758,0 79.347,-17.121 106.908,-44.68 26.73,-27.562 43.85,-65.144 43.85,-106.898 0,-41.758 -17.12,-79.34 -43.85,-106.907 -27.561,-27.976 -65.15,-44.675 -106.908,-44.675 -41.336,0 -79.336,16.699 -106.485,44.675 -26.718,27.567 -43.836,65.149 -43.836,106.907 0,41.754 17.118,79.336 43.836,106.898 z M 637.484,865.637 c -19.629,20.047 -47.183,32.148 -76.414,32.148 -29.234,0 -55.961,-12.101 -75.586,-32.148 -19.625,-19.207 -31.738,-46.352 -31.738,-76.414 0,-30.071 12.113,-57.207 31.738,-76.418 19.625,-20.047 46.352,-32.157 75.586,-32.157 29.231,0 56.785,12.11 76.414,32.157 19.211,19.211 31.321,45.933 31.321,76.418 0,30.48 -12.11,57.207 -31.321,76.414 z m -182.898,30.484 c 27.137,27.559 65.141,44.68 106.484,44.68 41.758,0 79.336,-17.121 106.899,-44.68 26.722,-27.562 43.847,-65.144 43.847,-106.898 0,-41.758 -17.125,-79.34 -43.847,-106.907 -27.563,-27.976 -65.141,-44.675 -106.899,-44.675 -41.343,0 -79.347,16.699 -106.484,44.675 -26.731,27.567 -43.848,65.149 -43.848,106.907 0,41.754 17.117,79.336 43.848,106.898 z M 150.207,643.07 h -42.176 v 292.305 h 34.239 l 96.464,-141.977 96.461,141.977 h 33.41 V 643.07 H 326.848 V 848.934 L 250.426,735.352 H 226.621 L 150.207,848.934 V 643.07"
         style="fill:#ffffff;fill-opacity:1;fill-rule:nonzero;stroke:none"
         id="path16"
         inkscape:connector-curvature="0" /><path
         d="m 1093.62,270.578 v 252.227 h -88.53 v 40.078 h 218.81 v -40.078 h -88.1 V 270.578 Z M 924.117,493.156 c -19.629,20.039 -47.187,32.149 -76.418,32.149 -29.234,0 -55.957,-12.11 -75.586,-32.149 -19.617,-19.207 -31.734,-46.355 -31.734,-76.418 0,-30.066 12.117,-57.207 31.734,-76.41 19.629,-20.047 46.352,-32.156 75.586,-32.156 29.231,0 56.789,12.109 76.418,32.156 19.207,19.203 31.317,45.922 31.317,76.41 0,30.481 -12.11,57.211 -31.317,76.418 z m -182.898,30.481 c 27.136,27.558 65.144,44.676 106.48,44.676 41.762,0 79.336,-17.118 106.906,-44.676 26.719,-27.559 43.836,-65.149 43.836,-106.899 0,-41.758 -17.117,-79.34 -43.836,-106.898 -27.57,-27.981 -65.144,-44.692 -106.906,-44.692 -41.336,0 -79.344,16.711 -106.48,44.692 -26.727,27.558 -43.852,65.14 -43.852,106.898 0,41.75 17.125,79.34 43.852,106.899 z M 490.285,439.281 H 613.887 V 562.473 H 656.48 V 270.578 H 613.887 V 397.531 H 490.285 V 270.578 h -42.176 v 291.895 h 42.176 z m -132.34,48.028 c -5.843,26.308 -34.242,37.578 -59.711,37.168 -19.629,-0.422 -41.343,-7.102 -53.039,-22.141 -5.843,-7.52 -7.929,-17.117 -7.097,-27.137 2.093,-30.07 35.078,-33.828 66.394,-36.75 40.09,-5.008 89.781,-15.449 101.055,-62.219 1.254,-6.269 2.09,-13.371 2.09,-19.21 0,-56.372 -55.957,-88.942 -108.574,-88.942 -45.094,0 -99.801,26.731 -105.227,78.934 l -0.418,7.918 42.594,0.84 0.418,-6.258 v 1.66 c 2.922,-27.133 35.91,-41.332 63.054,-41.332 31.317,0 65.563,17.539 65.563,47.59 0,2.929 -0.418,6.269 -1.258,10.031 -5.008,22.129 -35.07,25.891 -64.305,28.809 -45.515,4.589 -98.964,14.621 -103.558,75.589 v -0.421 c -1.672,19.628 3.336,39.257 15.867,55.539 19.625,25.476 54.703,38.836 88.523,38.836 45.106,0 91.872,-23.387 99.387,-76.836 l -41.758,-1.668"
         style="fill:#ffffff;fill-opacity:1;fill-rule:nonzero;stroke:none"
         id="path18"
         inkscape:connector-curvature="0" /><path
         d="M 1092.63,1304.14 C 970.355,1253.85 856.07,1181.61 756.859,1091.23 656.211,999.676 570.977,889.699 506.715,767.422 494.02,743.352 482.16,718.801 471.152,693.82 l 70.825,-33.328 c 8.632,25.867 18.242,51.465 28.828,76.699 50.058,119.852 121.609,231.848 211.015,328.889 88.157,95.83 193.84,176.89 311.28,237.77 -0.15,0.1 -0.31,0.19 -0.47,0.29"
         style="fill:#cce657;fill-opacity:1;fill-rule:nonzero;stroke:none"
         id="path20"
         inkscape:connector-curvature="0" /><path
         d="m 711.816,789.223 c 0,-41.758 -17.125,-79.34 -43.847,-106.907 -27.563,-27.976 -65.141,-44.675 -106.899,-44.675 -41.343,0 -79.347,16.699 -106.484,44.675 -26.731,27.567 -43.848,65.149 -43.848,106.907 h 43.008 c 0,-30.071 12.113,-57.207 31.738,-76.418 19.625,-20.047 46.352,-32.157 75.586,-32.157 29.231,0 56.785,12.11 76.414,32.157 19.211,19.211 31.321,45.933 31.321,76.418 h 43.011"
         style="fill:#ffffff;fill-opacity:1;fill-rule:nonzero;stroke:none"
         id="path22"
         inkscape:connector-curvature="0" /></g></g></svg>